<?xml version="1.0" encoding="iso-8859-1"?>
<!-- Uploaded to: SVG Repo, www.svgrepo.com, Generator: SVG Repo Mixer Tools -->
<!DOCTYPE svg PUBLIC "-//W3C//DTD SVG 1.1//EN" "http://www.w3.org/Graphics/SVG/1.1/DTD/svg11.dtd">
<svg fill="#000000" height="800px" width="800px" version="1.1" id="Capa_1" xmlns="http://www.w3.org/2000/svg" xmlns:xlink="http://www.w3.org/1999/xlink" 
	 viewBox="0 0 244.523 244.523" xml:space="preserve">
<path d="M232.98,0H11.544C6.427,0,2.262,4.17,2.262,9.283v225.959c0,5.111,4.165,9.281,9.282,9.281H232.98
	c5.117,0,9.282-4.17,9.282-9.281V9.283C242.262,4.17,238.097,0,232.98,0z M187.262,183.461c0,2.768-2.257,5.027-5.028,5.027H62.29
	c-2.771,0-5.028-2.26-5.028-5.027v-17.949c0-2.768,2.257-5.027,5.028-5.027h119.943c2.771,0,5.028,2.26,5.028,5.027V183.461z"/>
</svg>